0
SECTION
2
HEADER
9
$INSUNITS
70
4
9
$ACADVER
1
AC1014
9
$HANDSEED
5
FFFF
0
ENDSEC
0
SECTION
2
TABLES
0
TABLE
2
VPORT
5
8
100
AcDbSymbolTable
0
ENDTAB
0
TABLE
2
LTYPE
5
5
100
AcDbSymbolTable
0
LTYPE
5
14
100
AcDbSymbolTableRecord
100
AcDbLinetypeTableRecord
2
BYBLOCK
70
0
0
LTYPE
5
15
100
AcDbSymbolTableRecord
100
AcDbLinetypeTableRecord
2
BYLAYER
70
0
0
ENDTAB
0
TABLE
2
LAYER
5
2
100
AcDbSymbolTable
70
2
0
LAYER
5
50
100
AcDbSymbolTableRecord
100
AcDbLayerTableRecord
2
0
70
0
6
CONTINUOUS
0
ENDTAB
0
TABLE
2
STYLE
5
3
100
AcDbSymbolTable
70
1
0
STYLE
5
11
100
AcDbSymbolTableRecord
100
AcDbTextStyleTableRecord
2
STANDARD
70
0
0
ENDTAB
0
TABLE
2
VIEW
5
6
100
AcDbSymbolTable
70
0
0
ENDTAB
0
TABLE
2
UCS
5
7
100
AcDbSymbolTable
70
0
0
ENDTAB
0
TABLE
2
APPID
5
9
100
AcDbSymbolTable
70
2
0
APPID
5
12
100
AcDbSymbolTableRecord
100
AcDbRegAppTableRecord
2
ACAD
70
0
0
ENDTAB
0
TABLE
2
DIMSTYLE
5
A
100
AcDbSymbolTable
70
1
0
ENDTAB
0
TABLE
2
BLOCK_RECORD
5
1
100
AcDbSymbolTable
70
1
0
BLOCK_RECORD
5
1F
100
AcDbSymbolTableRecord
100
AcDbBlockTableRecord
2
*MODEL_SPACE
0
BLOCK_RECORD
5
1B
100
AcDbSymbolTableRecord
100
AcDbBlockTableRecord
2
*PAPER_SPACE
0
ENDTAB
0
ENDSEC
0
SECTION
2
BLOCKS
0
BLOCK
5
20
100
AcDbEntity
100
AcDbBlockBegin
2
*MODEL_SPACE
0
ENDBLK
5
21
100
AcDbEntity
100
AcDbBlockEnd
0
BLOCK
5
1C
100
AcDbEntity
100
AcDbBlockBegin
2
*PAPER_SPACE
0
ENDBLK
5
1D
100
AcDbEntity
100
AcDbBlockEnd
0
ENDSEC
0
SECTION
2
ENTITIES
0
LINE
5
100
100
AcDbEntity
8
0
100
AcDbLine
10
-25.200215322804738
20
-97.594300552759705
30
0
11
-30.206135290552041
21
-99.876159808070298
31
0
0
LINE
5
101
100
AcDbEntity
8
0
100
AcDbLine
10
-19.309878122412911
20
-94.9092954899115
30
0
11
-30.206135290552041
21
-99.876159808070298
31
0
0
ARC
5
102
100
AcDbEntity
8
0
100
AcDbCircle
10
-120.22617799422551
20
-158.3432599362755
30
0
40
107.3406255141672
100
AcDbArc
50
17.421434541789459
51
33.003313079789621
0
ARC
5
103
100
AcDbEntity
8
0
100
AcDbCircle
10
-120.22617799422389
20
-158.34325993627462
30
0
40
107.34062551416577
100
AcDbArc
50
17.42143454178925
51
33.003313079789606
0
ARC
5
104
100
AcDbEntity
8
0
100
AcDbCircle
10
-187.16926113054029
20
-173.06006853524991
30
0
40
175.72159592794819
100
AcDbArc
50
8.0038643939402956
51
15.46440594012263
0
ARC
5
105
100
AcDbEntity
8
0
100
AcDbCircle
10
-187.16926113053796
20
-173.06006853524968
30
0
40
175.72159592793628
100
AcDbArc
50
8.0038643939402956
51
15.464405940122772
0
ARC
5
106
100
AcDbEntity
8
0
100
AcDbCircle
10
20.260704549208679
20
-142.15717714820317
30
0
40
34.034099464870728
100
AcDbArc
50
190.89955848578575
51
205.97033916005822
0
ARC
5
107
100
AcDbEntity
8
0
100
AcDbCircle
10
20.260704549207595
20
-142.15717714820354
30
0
40
34.034099464869854
100
AcDbArc
50
190.89955848578543
51
205.97033916005844
0
LINE
5
108
100
AcDbEntity
8
0
100
AcDbLine
10
-13.159425540764344
20
-157.06090673509897
30
0
11
-13.159425540764344
21
-343.38088703977013
31
0
0
LINE
5
109
100
AcDbEntity
8
0
100
AcDbLine
10
-10.33666087308575
20
-157.06090673509897
30
0
11
-13.159425540764344
21
-157.06090673509897
31
0
0
LINE
5
110
100
AcDbEntity
8
0
100
AcDbLine
10
-13.159425540764344
20
-343.38088703977013
30
0
11
-20
21
-350
31
0
0
LINE
5
111
100
AcDbEntity
8
0
100
AcDbLine
10
-13.159425540764344
20
-343.38088703977013
30
0
11
-20
21
-350
31
0
0
LINE
5
112
100
AcDbEntity
8
0
100
AcDbLine
10
-13.159425540764344
20
-361.30727437466476
30
0
11
16.680399485193067
21
-354.01358288547078
31
0
0
LINE
5
113
100
AcDbEntity
8
0
100
AcDbLine
10
-13.159425540764344
20
-361.30727437466476
30
0
11
16.680399485193064
21
-354.01358288547078
31
0
0
ARC
5
114
100
AcDbEntity
8
0
100
AcDbCircle
10
14.77103155602466
20
-346.20200969225635
30
0
40
8.0415397556613559
100
AcDbArc
50
283.73538419023066
51
355.29259272577167
0
ARC
5
115
100
AcDbEntity
8
0
100
AcDbCircle
10
14.771031556024486
20
-346.20200969225618
30
0
40
8.0415397556616117
100
AcDbArc
50
283.73538419023157
51
355.29259272577059
0
LINE
5
116
100
AcDbEntity
8
0
100
AcDbLine
10
25
20
-310
30
0
11
15
21
-295
31
0
0
LINE
5
117
100
AcDbEntity
8
0
100
AcDbLine
10
15
20
-295
30
0
11
16.484975153667961
21
-220.47750325435595
31
0
0
LINE
5
118
100
AcDbEntity
8
0
100
AcDbLine
10
15
20
-295
30
0
11
16.484975153667961
21
-220.47750325435595
31
0
0
ARC
5
119
100
AcDbEntity
8
0
100
AcDbCircle
10
-897.97830626648647
20
-131.35383149947529
30
0
40
917.11232980780164
100
AcDbArc
50
-5.4422201902960392
51
0.31728521454492914
0
ARC
5
120
100
AcDbEntity
8
0
100
AcDbCircle
10
-897.97830626639347
20
-131.35383149947791
30
0
40
917.11232980771865
100
AcDbArc
50
-5.442220190296446
51
0.31728521454492914
0
LINE
5
121
100
AcDbEntity
8
0
100
AcDbLine
10
19.119961582210124
20
-126.27519049695749
30
0
11
18.216976510862089
21
-123.56985537215343
31
0
0
LINE
5
122
100
AcDbEntity
8
0
100
AcDbLine
10
19.119961582210124
20
-126.27519049695749
30
0
11
18.216976510862089
21
-123.56985537215343
31
0
0
ARC
5
123
100
AcDbEntity
8
0
100
AcDbCircle
10
8.8817841970012523e-15
20
-85.350589930728631
30
0
40
22.047660104201157
100
AcDbArc
50
243.02749516189286
51
296.97250483810706
0
ARC
5
124
100
AcDbEntity
8
0
100
AcDbCircle
10
1.7208456881689926e-14
20
-85.350589930728731
30
0
40
22.047660104201054
100
AcDbArc
50
243.02749516189272
51
296.97250483810717
0
ARC
5
125
100
AcDbEntity
8
0
100
AcDbCircle
10
-0.51781695712346476
20
-86.911466898752565
30
0
40
20.423193310879185
100
AcDbArc
50
203.05441623051274
51
242.33603937858842
0
ARC
5
126
100
AcDbEntity
8
0
100
AcDbCircle
10
-0.51781695712349807
20
-86.911466898752607
30
0
40
20.423193310879114
100
AcDbArc
50
203.05441623051266
51
242.33603937858842
0
LINE
5
127
100
AcDbEntity
8
0
100
AcDbLine
10
-20
20
-350
30
0
11
-13.159425540764344
21
-361.30727437466476
31
0
0
ARC
5
128
100
AcDbEntity
8
0
100
AcDbCircle
10
-90.098349030139104
20
-321.5827411888348
30
0
40
115.67968638836854
100
AcDbArc
50
-12.622572745149531
51
5.7465241822588062
0
ARC
5
129
100
AcDbEntity
8
0
100
AcDbCircle
10
-90.098349030137669
20
-321.5827411888348
30
0
40
115.67968638836692
100
AcDbArc
50
-12.622572745149686
51
5.7465241822588062
0
ARC
5
130
100
AcDbEntity
8
0
100
AcDbCircle
10
2.2388650678064881
20
-89.259979077019253
30
0
40
17.54945794295611
100
AcDbArc
50
296.24711757739658
51
335.56925003048065
0
LINE
5
131
100
AcDbEntity
8
0
100
AcDbLine
10
18.216976510862089
20
-96.518314203264239
30
0
11
29.36778229498686
21
-101.48185479539777
31
0
0
LINE
5
132
100
AcDbEntity
8
0
100
AcDbLine
10
29.36778229498686
20
-101.48185479539777
30
0
11
18.216976510862089
21
-123.56985537215343
31
0
0
ENDSEC
0
SECTION
2
OBJECTS
0
DICTIONARY
5
C
100
AcDbDictionary
3
ACAD_GROUP
350
D
3
ACAD_MLINESTYLE
350
17
0
DICTIONARY
5
D
100
AcDbDictionary
0
DICTIONARY
5
1A
330
C
100
AcDbDictionary
0
DICTIONARY
5
17
100
AcDbDictionary
0
ENDSEC
0
EOF
