0
SECTION
2
HEADER
9
$INSUNITS
70
4
9
$ACADVER
1
AC1014
9
$HANDSEED
5
FFFF
0
ENDSEC
0
SECTION
2
TABLES
0
TABLE
2
VPORT
5
8
100
AcDbSymbolTable
0
ENDTAB
0
TABLE
2
LTYPE
5
5
100
AcDbSymbolTable
0
LTYPE
5
14
100
AcDbSymbolTableRecord
100
AcDbLinetypeTableRecord
2
BYBLOCK
70
0
0
LTYPE
5
15
100
AcDbSymbolTableRecord
100
AcDbLinetypeTableRecord
2
BYLAYER
70
0
0
ENDTAB
0
TABLE
2
LAYER
5
2
100
AcDbSymbolTable
70
2
0
LAYER
5
50
100
AcDbSymbolTableRecord
100
AcDbLayerTableRecord
2
0
70
0
6
CONTINUOUS
0
ENDTAB
0
TABLE
2
STYLE
5
3
100
AcDbSymbolTable
70
1
0
STYLE
5
11
100
AcDbSymbolTableRecord
100
AcDbTextStyleTableRecord
2
STANDARD
70
0
0
ENDTAB
0
TABLE
2
VIEW
5
6
100
AcDbSymbolTable
70
0
0
ENDTAB
0
TABLE
2
UCS
5
7
100
AcDbSymbolTable
70
0
0
ENDTAB
0
TABLE
2
APPID
5
9
100
AcDbSymbolTable
70
2
0
APPID
5
12
100
AcDbSymbolTableRecord
100
AcDbRegAppTableRecord
2
ACAD
70
0
0
ENDTAB
0
TABLE
2
DIMSTYLE
5
A
100
AcDbSymbolTable
70
1
0
ENDTAB
0
TABLE
2
BLOCK_RECORD
5
1
100
AcDbSymbolTable
70
1
0
BLOCK_RECORD
5
1F
100
AcDbSymbolTableRecord
100
AcDbBlockTableRecord
2
*MODEL_SPACE
0
BLOCK_RECORD
5
1B
100
AcDbSymbolTableRecord
100
AcDbBlockTableRecord
2
*PAPER_SPACE
0
ENDTAB
0
ENDSEC
0
SECTION
2
BLOCKS
0
BLOCK
5
20
100
AcDbEntity
100
AcDbBlockBegin
2
*MODEL_SPACE
0
ENDBLK
5
21
100
AcDbEntity
100
AcDbBlockEnd
0
BLOCK
5
1C
100
AcDbEntity
100
AcDbBlockBegin
2
*PAPER_SPACE
0
ENDBLK
5
1D
100
AcDbEntity
100
AcDbBlockEnd
0
ENDSEC
0
SECTION
2
ENTITIES
0
LINE
5
100
100
AcDbEntity
8
0
100
AcDbLine
10
0
20
350
30
0
11
-30
21
25
31
0
0
LINE
5
101
100
AcDbEntity
8
0
100
AcDbLine
10
-30
20
25
30
0
11
-28.018785540497227
21
11.983750390340033
31
0
0
LINE
5
102
100
AcDbEntity
8
0
100
AcDbLine
10
-28.018785540497227
20
11.983750390340033
30
0
11
-21.177073235015445
21
-2.2849969609390497
31
0
0
LINE
5
103
100
AcDbEntity
8
0
100
AcDbLine
10
-21.177073235015445
20
-2.2849969609390497
30
0
11
-21.177073235015445
21
-40
31
0
0
ARC
5
104
100
AcDbEntity
8
0
100
AcDbCircle
10
119.24197718139318
20
-97.594300552759705
30
0
40
151.77158224123136
100
AcDbArc
50
157.69851524073985
51
169.52452276827924
0
ARC
5
105
100
AcDbEntity
8
0
100
AcDbCircle
10
7.6201589412611437
20
-77.670896210146978
30
0
40
38.394257479896595
100
AcDbArc
50
168.4751571874875
51
211.25958413108751
0
LINE
5
106
100
AcDbEntity
8
0
100
AcDbLine
10
-25.200215322804738
20
-97.594300552759705
30
0
11
-30.206135290552041
21
-99.876159808070298
31
0
0
ARC
5
107
100
AcDbEntity
8
0
100
AcDbCircle
10
-120.22617799422498
20
-158.34325993627522
30
0
40
107.34062551416577
100
AcDbArc
50
17.421434541789377
51
33.003313079789635
0
ARC
5
108
100
AcDbEntity
8
0
100
AcDbCircle
10
-187.16926113053711
20
-173.06006853524934
30
0
40
175.72159592793628
100
AcDbArc
50
8.003864393940205
51
15.464405940122726
0
ARC
5
109
100
AcDbEntity
8
0
100
AcDbCircle
10
20.260704549207134
20
-142.1571771482038
30
0
40
34.034099464869854
100
AcDbArc
50
190.89955848578518
51
205.97033916005844
0
LINE
5
110
100
AcDbEntity
8
0
100
AcDbLine
10
-10.33666087308575
20
-157.06090673509897
30
0
11
-13.159425540764344
21
-157.06090673509897
31
0
0
LINE
5
111
100
AcDbEntity
8
0
100
AcDbLine
10
-13.159425540764344
20
-157.06090673509897
30
0
11
-13.159425540764344
21
-343.38088703977013
31
0
0
LINE
5
112
100
AcDbEntity
8
0
100
AcDbLine
10
-13.159425540764344
20
-343.38088703977013
30
0
11
-20
21
-350
31
0
0
LINE
5
113
100
AcDbEntity
8
0
100
AcDbLine
10
-20
20
-350
30
0
11
-13.159425540764344
21
-361.30727437466476
31
0
0
LINE
5
114
100
AcDbEntity
8
0
100
AcDbLine
10
-13.159425540764344
20
-361.30727437466476
30
0
11
16.680399485193067
21
-354.01358288547078
31
0
0
ARC
5
115
100
AcDbEntity
8
0
100
AcDbCircle
10
14.771031556024568
20
-346.20200969225635
30
0
40
8.0415397556614483
100
AcDbArc
50
283.73538419023129
51
355.29259272577173
0
ARC
5
116
100
AcDbEntity
8
0
100
AcDbCircle
10
-90.09834903013757
20
-321.5827411888348
30
0
40
115.67968638836692
100
AcDbArc
50
-12.622572745149686
51
5.7465241822588693
0
ARC
5
117
100
AcDbEntity
8
0
100
AcDbCircle
10
-245.78087073265579
20
-479.68724715510348
30
0
40
319.55600730057512
100
AcDbArc
50
32.073682048411264
51
35.306453003548206
0
LINE
5
118
100
AcDbEntity
8
0
100
AcDbLine
10
15
20
-295
30
0
11
16.484975153667961
21
-220.47750325435595
31
0
0
LINE
5
119
100
AcDbEntity
8
0
100
AcDbLine
10
16.484975153667961
20
-220.47750325435595
30
0
11
15
21
-218.33450620535149
31
0
0
ARC
5
120
100
AcDbEntity
8
0
100
AcDbCircle
10
-897.9783062663812
20
-131.35383149947302
30
0
40
917.11232980771865
100
AcDbArc
50
-5.4422201902968022
51
0.31728521454492914
0
LINE
5
121
100
AcDbEntity
8
0
100
AcDbLine
10
19.119961582210124
20
-126.27519049695749
30
0
11
18.216976510862089
21
-123.56985537215343
31
0
0
ARC
5
122
100
AcDbEntity
8
0
100
AcDbCircle
10
1099.1439770024044
20
-655.40146633755285
30
0
40
1204.6775679872933
100
AcDbArc
50
152.62532253948723
51
153.80215132900412
0
ARC
5
123
100
AcDbEntity
8
0
100
AcDbCircle
10
-3572.4875743454322
20
-8178.1964898086153
30
0
40
8843.4541501381682
100
AcDbArc
50
65.965254983117092
51
66.001697063711987
0
LINE
5
124
100
AcDbEntity
8
0
100
AcDbLine
10
0
20
350
30
0
11
0
21
375.33540423048464
31
0
0
LINE
5
125
100
AcDbEntity
8
0
100
AcDbLine
10
0
20
350
30
0
11
30
21
25
31
0
0
LINE
5
126
100
AcDbEntity
8
0
100
AcDbLine
10
21.177073235015445
20
-2.2849969609390541
30
0
11
21.177073235015445
21
-40
31
0
0
LINE
5
127
100
AcDbEntity
8
0
100
AcDbLine
10
28.018785540497227
20
11.983750390340049
30
0
11
21.177073235015445
21
-2.2849969609390541
31
0
0
LINE
5
128
100
AcDbEntity
8
0
100
AcDbLine
10
30
20
25
30
0
11
28.018785540497227
21
11.983750390340049
31
0
0
ARC
5
129
100
AcDbEntity
8
0
100
AcDbCircle
10
-119.24197718139318
20
-97.594300552759705
30
0
40
151.77158224123355
100
AcDbArc
50
10.475477231720767
51
22.301484759260155
0
ARC
5
130
100
AcDbEntity
8
0
100
AcDbCircle
10
-7.6201589412611437
20
-77.670896210146978
30
0
40
38.394257479896623
100
AcDbArc
50
-31.259584131087525
51
11.524842812512507
0
LINE
5
131
100
AcDbEntity
8
0
100
AcDbLine
10
25.200215322804738
20
-97.594300552759705
30
0
11
24.229986614885838
21
-99.19258510132758
31
0
0
ENDSEC
0
SECTION
2
OBJECTS
0
DICTIONARY
5
C
100
AcDbDictionary
3
ACAD_GROUP
350
D
3
ACAD_MLINESTYLE
350
17
0
DICTIONARY
5
D
100
AcDbDictionary
0
DICTIONARY
5
1A
330
C
100
AcDbDictionary
0
DICTIONARY
5
17
100
AcDbDictionary
0
ENDSEC
0
EOF
